<svg width="162" height="27" viewBox="0 0 162 27" fill="none" xmlns="http://www.w3.org/2000/svg">
<path d="M5.87012 25.75C4.85449 25.75 3.9821 25.612 3.25293 25.3359C2.52376 25.0651 1.93783 24.7005 1.49512 24.2422C1.05241 23.7839 0.745117 23.276 0.573242 22.7188L3.12012 22.1016C3.2347 22.3359 3.40137 22.5677 3.62012 22.7969C3.83887 23.0312 4.13314 23.224 4.50293 23.375C4.87793 23.5313 5.34928 23.6094 5.91699 23.6094C6.71908 23.6094 7.38314 23.4141 7.90918 23.0234C8.43522 22.638 8.69824 22.0026 8.69824 21.1172V18.8438H8.55762C8.41178 19.1354 8.19824 19.4349 7.91699 19.7422C7.64095 20.0495 7.27376 20.3073 6.81543 20.5156C6.3623 20.724 5.79199 20.8281 5.10449 20.8281C4.18262 20.8281 3.34668 20.612 2.59668 20.1797C1.85189 19.7422 1.25814 19.0911 0.81543 18.2266C0.37793 17.3568 0.15918 16.2682 0.15918 14.9609C0.15918 13.6432 0.37793 12.5313 0.81543 11.625C1.25814 10.7135 1.85449 10.0234 2.60449 9.55469C3.35449 9.08073 4.19043 8.84375 5.1123 8.84375C5.81543 8.84375 6.39355 8.96354 6.84668 9.20312C7.30501 9.4375 7.6696 9.72135 7.94043 10.0547C8.21126 10.3828 8.41699 10.6927 8.55762 10.9844H8.71387V9H11.5029V21.1953C11.5029 22.2214 11.2581 23.0703 10.7686 23.7422C10.279 24.4141 9.6097 24.9167 8.76074 25.25C7.91178 25.5833 6.94824 25.75 5.87012 25.75ZM5.89356 18.6094C6.49251 18.6094 7.00293 18.4635 7.4248 18.1719C7.84668 17.8802 8.16699 17.4609 8.38574 16.9141C8.60449 16.3672 8.71387 15.7109 8.71387 14.9453C8.71387 14.1901 8.60449 13.5286 8.38574 12.9609C8.1722 12.3932 7.85449 11.9531 7.43262 11.6406C7.01595 11.3229 6.50293 11.1641 5.89356 11.1641C5.26335 11.1641 4.7373 11.3281 4.31543 11.6562C3.89355 11.9844 3.57585 12.4349 3.3623 13.0078C3.14876 13.5755 3.04199 14.2214 3.04199 14.9453C3.04199 15.6797 3.14876 16.3229 3.3623 16.875C3.58105 17.4219 3.90137 17.849 4.32324 18.1562C4.75033 18.4583 5.27376 18.6094 5.89356 18.6094Z" fill="white"/>
<path d="M19.6357 21.2344C18.4639 21.2344 17.4482 20.9766 16.5889 20.4609C15.7295 19.9453 15.0628 19.224 14.5889 18.2969C14.1201 17.3698 13.8857 16.2865 13.8857 15.0469C13.8857 13.8073 14.1201 12.7214 14.5889 11.7891C15.0628 10.8568 15.7295 10.1328 16.5889 9.61719C17.4482 9.10156 18.4639 8.84375 19.6357 8.84375C20.8076 8.84375 21.8232 9.10156 22.6826 9.61719C23.542 10.1328 24.2061 10.8568 24.6748 11.7891C25.1488 12.7214 25.3857 13.8073 25.3857 15.0469C25.3857 16.2865 25.1488 17.3698 24.6748 18.2969C24.2061 19.224 23.542 19.9453 22.6826 20.4609C21.8232 20.9766 20.8076 21.2344 19.6357 21.2344ZM19.6514 18.9688C20.2868 18.9688 20.818 18.7943 21.2451 18.4453C21.6722 18.0911 21.9899 17.6172 22.1982 17.0234C22.4118 16.4297 22.5186 15.7682 22.5186 15.0391C22.5186 14.3047 22.4118 13.6406 22.1982 13.0469C21.9899 12.4479 21.6722 11.9714 21.2451 11.6172C20.818 11.263 20.2868 11.0859 19.6514 11.0859C19.0003 11.0859 18.4587 11.263 18.0264 11.6172C17.5993 11.9714 17.279 12.4479 17.0654 13.0469C16.8571 13.6406 16.7529 14.3047 16.7529 15.0391C16.7529 15.7682 16.8571 16.4297 17.0654 17.0234C17.279 17.6172 17.5993 18.0911 18.0264 18.4453C18.4587 18.7943 19.0003 18.9688 19.6514 18.9688Z" fill="white"/>
<path d="M31.2393 21.2422C30.4788 21.2422 29.7939 21.1068 29.1846 20.8359C28.5804 20.5599 28.1012 20.1536 27.7471 19.6172C27.3981 19.0807 27.2236 18.4193 27.2236 17.6328C27.2236 16.9557 27.3486 16.3958 27.5986 15.9531C27.8486 15.5104 28.1898 15.1563 28.6221 14.8906C29.0544 14.625 29.5413 14.4245 30.083 14.2891C30.6299 14.1484 31.195 14.0469 31.7783 13.9844C32.4814 13.9115 33.0518 13.8464 33.4893 13.7891C33.9268 13.7266 34.2445 13.6328 34.4424 13.5078C34.6455 13.3776 34.7471 13.1771 34.7471 12.9062V12.8594C34.7471 12.2708 34.5726 11.8151 34.2236 11.4922C33.8747 11.1693 33.3721 11.0078 32.7158 11.0078C32.0231 11.0078 31.4736 11.1589 31.0674 11.4609C30.6663 11.763 30.3955 12.1198 30.2549 12.5313L27.6143 12.1562C27.8226 11.4271 28.1663 10.8177 28.6455 10.3281C29.1247 9.83333 29.7106 9.46354 30.4033 9.21875C31.096 8.96875 31.8617 8.84375 32.7002 8.84375C33.2783 8.84375 33.8538 8.91146 34.4268 9.04688C34.9997 9.18229 35.5231 9.40625 35.9971 9.71875C36.471 10.026 36.8512 10.4453 37.1377 10.9766C37.4294 11.5078 37.5752 12.1719 37.5752 12.9688V21H34.8564V19.3516H34.7627C34.5908 19.6849 34.3486 19.9974 34.0361 20.2891C33.7288 20.5755 33.3408 20.8073 32.8721 20.9844C32.4085 21.1563 31.8643 21.2422 31.2393 21.2422ZM31.9736 19.1641C32.5413 19.1641 33.0335 19.0521 33.4502 18.8281C33.8669 18.599 34.1872 18.2969 34.4111 17.9219C34.6403 17.5469 34.7549 17.138 34.7549 16.6953V15.2812C34.6663 15.3542 34.5153 15.4219 34.3018 15.4844C34.0934 15.5469 33.859 15.6016 33.5986 15.6484C33.3382 15.6953 33.0804 15.737 32.8252 15.7734C32.57 15.8099 32.3486 15.8411 32.1611 15.8672C31.7393 15.9245 31.3617 16.0182 31.0283 16.1484C30.695 16.2786 30.432 16.4609 30.2393 16.6953C30.0465 16.9245 29.9502 17.2214 29.9502 17.5859C29.9502 18.1068 30.1403 18.5 30.5205 18.7656C30.9007 19.0312 31.3851 19.1641 31.9736 19.1641Z" fill="white"/>
<path d="M43.2471 5V21H40.4189V5H43.2471Z" fill="white"/>
<path d="M55.6396 12.1719L53.0615 12.4531C52.9886 12.1927 52.861 11.9479 52.6787 11.7188C52.5016 11.4896 52.262 11.3047 51.96 11.1641C51.6579 11.0234 51.2881 10.9531 50.8506 10.9531C50.262 10.9531 49.7673 11.0807 49.3662 11.3359C48.9704 11.5911 48.7751 11.9219 48.7803 12.3281C48.7751 12.6771 48.9027 12.9609 49.1631 13.1797C49.4287 13.3984 49.8662 13.5781 50.4756 13.7188L52.5225 14.1562C53.6579 14.401 54.5016 14.7891 55.0537 15.3203C55.611 15.8516 55.8923 16.5469 55.8975 17.4062C55.8923 18.1615 55.6709 18.8281 55.2334 19.4062C54.8011 19.9792 54.1995 20.4271 53.4287 20.75C52.6579 21.0729 51.7725 21.2344 50.7725 21.2344C49.3037 21.2344 48.1214 20.9271 47.2256 20.3125C46.3298 19.6927 45.7959 18.8307 45.624 17.7266L48.3818 17.4609C48.5068 18.0026 48.7725 18.4115 49.1787 18.6875C49.585 18.9635 50.1136 19.1016 50.7646 19.1016C51.4365 19.1016 51.9756 18.9635 52.3818 18.6875C52.7933 18.4115 52.999 18.0703 52.999 17.6641C52.999 17.3203 52.8662 17.0365 52.6006 16.8125C52.3402 16.5885 51.9339 16.4167 51.3818 16.2969L49.335 15.8672C48.1839 15.6276 47.3324 15.224 46.7803 14.6562C46.2282 14.0833 45.9548 13.3594 45.96 12.4844C45.9548 11.7448 46.1553 11.1042 46.5615 10.5625C46.973 10.0156 47.5433 9.59375 48.2725 9.29688C49.0068 8.99479 49.8532 8.84375 50.8115 8.84375C52.2178 8.84375 53.3245 9.14323 54.1318 9.74219C54.9443 10.3411 55.4469 11.151 55.6396 12.1719Z" fill="white"/>
<path d="M64.2217 9V11.1875H57.3232V9H64.2217ZM59.0264 6.125H61.8545V17.3906C61.8545 17.7708 61.9118 18.0625 62.0264 18.2656C62.1462 18.4635 62.3024 18.599 62.4951 18.6719C62.6878 18.7448 62.9014 18.7812 63.1357 18.7812C63.3128 18.7812 63.4743 18.7682 63.6201 18.7422C63.7712 18.7161 63.8857 18.6927 63.9639 18.6719L64.4404 20.8828C64.2894 20.9349 64.0732 20.9922 63.792 21.0547C63.516 21.1172 63.1774 21.1536 62.7764 21.1641C62.068 21.1849 61.43 21.0781 60.8623 20.8438C60.2946 20.6042 59.8441 20.2344 59.5107 19.7344C59.1826 19.2344 59.0212 18.6094 59.0264 17.8594V6.125Z" fill="white"/>
<path d="M66.5869 21V9H69.3291V11H69.4541C69.6729 10.3073 70.0479 9.77344 70.5791 9.39844C71.1156 9.01823 71.7275 8.82812 72.415 8.82812C72.5713 8.82812 72.7458 8.83594 72.9385 8.85156C73.1364 8.86198 73.3005 8.88021 73.4307 8.90625V11.5078C73.3109 11.4661 73.1208 11.4297 72.8604 11.3984C72.6051 11.362 72.3577 11.3438 72.1182 11.3438C71.6025 11.3438 71.139 11.4557 70.7275 11.6797C70.3213 11.8984 70.001 12.2031 69.7666 12.5938C69.5322 12.9844 69.415 13.4349 69.415 13.9453V21H66.5869Z" fill="white"/>
<path d="M80.1279 21.2344C78.9248 21.2344 77.8857 20.9844 77.0107 20.4844C76.141 19.9792 75.4717 19.2656 75.0029 18.3438C74.5342 17.4167 74.2998 16.3255 74.2998 15.0703C74.2998 13.8359 74.5342 12.7526 75.0029 11.8203C75.4769 10.8828 76.1383 10.1536 76.9873 9.63281C77.8363 9.10677 78.8337 8.84375 79.9795 8.84375C80.7191 8.84375 81.417 8.96354 82.0732 9.20312C82.7347 9.4375 83.318 9.80208 83.8232 10.2969C84.3337 10.7917 84.7347 11.4219 85.0264 12.1875C85.318 12.9479 85.4639 13.8542 85.4639 14.9062V15.7734H75.6279V13.8672H82.7529C82.7477 13.3255 82.6305 12.8438 82.4014 12.4219C82.1722 11.9948 81.8519 11.6589 81.4404 11.4141C81.0342 11.1693 80.5602 11.0469 80.0186 11.0469C79.4404 11.0469 78.9326 11.1875 78.4951 11.4688C78.0576 11.7448 77.7165 12.1094 77.4717 12.5625C77.2321 13.0104 77.1097 13.5026 77.1045 14.0391V15.7031C77.1045 16.401 77.2321 17 77.4873 17.5C77.7425 17.9948 78.0993 18.375 78.5576 18.6406C79.016 18.901 79.5524 19.0312 80.167 19.0312C80.5785 19.0312 80.9508 18.974 81.2842 18.8594C81.6175 18.7396 81.9066 18.5651 82.1514 18.3359C82.3962 18.1068 82.5811 17.8229 82.7061 17.4844L85.3467 17.7812C85.18 18.4792 84.8623 19.0885 84.3936 19.6094C83.93 20.125 83.3363 20.526 82.6123 20.8125C81.8883 21.0938 81.0602 21.2344 80.1279 21.2344Z" fill="white"/>
<path d="M93.1689 21.2344C91.9658 21.2344 90.9268 20.9844 90.0518 20.4844C89.182 19.9792 88.5127 19.2656 88.0439 18.3438C87.5752 17.4167 87.3408 16.3255 87.3408 15.0703C87.3408 13.8359 87.5752 12.7526 88.0439 11.8203C88.5179 10.8828 89.1794 10.1536 90.0283 9.63281C90.8773 9.10677 91.8747 8.84375 93.0205 8.84375C93.7601 8.84375 94.458 8.96354 95.1143 9.20312C95.7757 9.4375 96.359 9.80208 96.8643 10.2969C97.3747 10.7917 97.7757 11.4219 98.0674 12.1875C98.359 12.9479 98.5049 13.8542 98.5049 14.9062V15.7734H88.6689V13.8672H95.7939C95.7887 13.3255 95.6715 12.8438 95.4424 12.4219C95.2132 11.9948 94.8929 11.6589 94.4814 11.4141C94.0752 11.1693 93.6012 11.0469 93.0596 11.0469C92.4814 11.0469 91.9736 11.1875 91.5361 11.4688C91.0986 11.7448 90.7575 12.1094 90.5127 12.5625C90.2731 13.0104 90.1507 13.5026 90.1455 14.0391V15.7031C90.1455 16.401 90.2731 17 90.5283 17.5C90.7835 17.9948 91.1403 18.375 91.5986 18.6406C92.057 18.901 92.5934 19.0312 93.208 19.0312C93.6195 19.0312 93.9919 18.974 94.3252 18.8594C94.6585 18.7396 94.9476 18.5651 95.1924 18.3359C95.4372 18.1068 95.6221 17.8229 95.7471 17.4844L98.3877 17.7812C98.221 18.4792 97.9033 19.0885 97.4346 19.6094C96.971 20.125 96.3773 20.526 95.6533 20.8125C94.9294 21.0938 94.1012 21.2344 93.1689 21.2344Z" fill="white"/>
<path d="M106.89 9V11.1875H99.9912V9H106.89ZM101.694 6.125H104.522V17.3906C104.522 17.7708 104.58 18.0625 104.694 18.2656C104.814 18.4635 104.97 18.599 105.163 18.6719C105.356 18.7448 105.569 18.7812 105.804 18.7812C105.981 18.7812 106.142 18.7682 106.288 18.7422C106.439 18.7161 106.554 18.6927 106.632 18.6719L107.108 20.8828C106.957 20.9349 106.741 20.9922 106.46 21.0547C106.184 21.1172 105.845 21.1536 105.444 21.1641C104.736 21.1849 104.098 21.0781 103.53 20.8438C102.963 20.6042 102.512 20.2344 102.179 19.7344C101.851 19.2344 101.689 18.6094 101.694 17.8594V6.125Z" fill="white"/>
<path d="M135.431 11.2907C135.431 11.865 135.291 12.4033 135.015 12.9058C134.748 13.4083 134.323 13.8134 133.738 14.121C133.165 14.4287 132.436 14.5825 131.554 14.5825H129.755V18.7048H127.602V7.96826H131.554C132.385 7.96826 133.092 8.11179 133.677 8.39894C134.261 8.68608 134.697 9.08086 134.984 9.58334C135.282 10.0858 135.431 10.6549 135.431 11.2907ZM131.462 12.8443C132.057 12.8443 132.498 12.711 132.785 12.4444C133.072 12.1675 133.216 11.7829 133.216 11.2907C133.216 10.2448 132.631 9.72177 131.462 9.72177H129.755V12.8443H131.462ZM139.112 11.5061C139.39 11.0549 139.748 10.7011 140.189 10.4448C140.64 10.1883 141.152 10.0602 141.727 10.0602V12.3213H141.158C140.481 12.3213 139.968 12.4802 139.62 12.7982C139.282 13.116 139.112 13.6698 139.112 14.4594V18.7048H136.959V10.1832H139.112V11.5061ZM146.961 18.8432C146.141 18.8432 145.402 18.6638 144.747 18.3048C144.09 17.9357 143.573 17.4179 143.193 16.7513C142.824 16.0847 142.639 15.3156 142.639 14.4441C142.639 13.5724 142.829 12.8033 143.209 12.1368C143.598 11.4702 144.126 10.9575 144.793 10.5985C145.459 10.2294 146.202 10.0448 147.023 10.0448C147.843 10.0448 148.586 10.2294 149.253 10.5985C149.919 10.9575 150.442 11.4702 150.822 12.1368C151.211 12.8033 151.406 13.5724 151.406 14.4441C151.406 15.3156 151.206 16.0847 150.806 16.7513C150.417 17.4179 149.883 17.9357 149.206 18.3048C148.54 18.6638 147.792 18.8432 146.961 18.8432ZM146.961 16.9666C147.351 16.9666 147.715 16.8744 148.054 16.6897C148.402 16.4949 148.679 16.2078 148.884 15.8284C149.089 15.4489 149.191 14.9875 149.191 14.4441C149.191 13.6339 148.976 13.0135 148.545 12.5828C148.125 12.1419 147.607 11.9214 146.992 11.9214C146.377 11.9214 145.859 12.1419 145.438 12.5828C145.028 13.0135 144.823 13.6339 144.823 14.4441C144.823 15.2541 145.023 15.8796 145.423 16.3206C145.834 16.7513 146.346 16.9666 146.961 16.9666Z" fill="white"/>
<path d="M158.582 1H119.882C118.29 1 117 2.29039 117 3.88216V22.822C117 24.4138 118.29 25.7042 119.882 25.7042H158.582C160.174 25.7042 161.464 24.4138 161.464 22.822V3.88216C161.464 2.29039 160.174 1 158.582 1Z" stroke="white" stroke-width="0.823473"/>
</svg>
